# xmcd
#
# Track frame offsets: 
#        150
#        24464
#        42289
#        61798
#        87421
#        113916
#        131987
#        146452
#
# Disc length: 2325 seconds
#
# Revision: 0
# Processed by: cddbd v1.5.2PL0 Copyright (c) Steve Scherf et al.
# Submitted via: ExactAudioCopy v0.99pb4
#
DISCID=6b091308
DTITLE=Keef Hartley - Lancashire Hustler
DYEAR=1972
DGENRE=Blues
TTITLE0=Circles
TTITLE1=You and Me
TTITLE2=Shovel A Minor
TTITLE3=Australian Lady
TTITLE4=Action
TTITLE5=Know Something
TTITLE6=Jennie's Father
TTITLE7=Dance To The Music
EXTD=
EXTT0=
EXTT1=
EXTT2=
EXTT3=
EXTT4=
EXTT5=
EXTT6=
EXTT7=
PLAYORDER=
